# xmcd
#
# Track frame offsets: 
#        150
#        10954
#        21075
#        35418
#        48496
#        59781
#        71653
#        83838
#        93708
#        105593
#        115851
#        125612
#        136164
#        151360
#        165357
#        176888
#
# Disc length: 2480 seconds
#
# Revision: 0
# Processed by: cddbd v1.5.2PL0 Copyright (c) Steve Scherf et al.
# Submitted via: ExactAudioCopy v0.99pb5
#
DISCID=d909ae10
DTITLE=Jim Reeves - Welcome to my World, The Best of Jim Reeves - CD1
DYEAR=2010
DGENRE=Easy Listening
TTITLE0=I Guess I'm Crazy
TTITLE1=Is It Really Over?
TTITLE2=Guilty
TTITLE3=When You are Gone
TTITLE4=Anna Marie
TTITLE5=Welcome to My World
TTITLE6=Wild Rose
TTITLE7=I'm Beginning to Forget You
TTITLE8=Am I Losing You
TTITLE9=Losing Your Love
TTITLE10=Snowflake
TTITLE11=Two Shadows on Your Windows
TTITLE12=Blue Side of Lonesome
TTITLE13=Whispering Hope
TTITLE14=I Missed Me
TTITLE15=Overnight
EXTD=
EXTT0=
EXTT1=
EXTT2=
EXTT3=
EXTT4=
EXTT5=
EXTT6=
EXTT7=
EXTT8=
EXTT9=
EXTT10=
EXTT11=
EXTT12=
EXTT13=
EXTT14=
EXTT15=
PLAYORDER=
